<?xml version="1.0" encoding="UTF-8"?>
<svg version="1.1" viewBox="0 0 300 300" xmlns="http://www.w3.org/2000/svg">
 <defs>
  <linearGradient id="o" x1="312.14" x2="450.27" y1="409.91" y2="341.19" gradientTransform="translate(-11.413)" gradientUnits="userSpaceOnUse">
   <stop offset="0"/>
   <stop stop-opacity="0" offset="1"/>
  </linearGradient>
  <linearGradient id="p" x1="527.14" x2="386.47" y1="214.51" y2="338.08" gradientTransform="translate(136.5 173.7)" gradientUnits="userSpaceOnUse">
   <stop stop-color="#fff" offset="0"/>
   <stop stop-color="#fff" stop-opacity="0" offset="1"/>
  </linearGradient>
  <linearGradient id="r" x1="299.01" x2="409.62" y1="956.9" y2="895.28" gradientTransform="matrix(.87235 0 0 .87296 235.19 -200.03)" gradientUnits="userSpaceOnUse">
   <stop offset="0"/>
   <stop stop-opacity="0" offset="1"/>
  </linearGradient>
  <linearGradient id="q" x1="312.14" x2="450.27" y1="409.91" y2="341.19" gradientTransform="translate(136.5 173.7)" gradientUnits="userSpaceOnUse">
   <stop offset="0"/>
   <stop stop-opacity="0" offset="1"/>
  </linearGradient>
  <linearGradient id="n" x1="527.14" x2="386.47" y1="214.51" y2="338.08" gradientTransform="translate(-11.413)" gradientUnits="userSpaceOnUse">
   <stop stop-color="#fff" offset="0"/>
   <stop stop-color="#fff" stop-opacity="0" offset="1"/>
  </linearGradient>
  <linearGradient id="k" x1="312.14" x2="450.27" y1="409.91" y2="341.19" gradientTransform="translate(76.901 225.72)" gradientUnits="userSpaceOnUse">
   <stop offset="0"/>
   <stop stop-opacity="0" offset="1"/>
  </linearGradient>
  <linearGradient id="j" x1="527.14" x2="386.47" y1="214.51" y2="338.08" gradientTransform="translate(76.901 225.72)" gradientUnits="userSpaceOnUse">
   <stop stop-color="#fff" offset="0"/>
   <stop stop-color="#fff" stop-opacity="0" offset="1"/>
  </linearGradient>
  <linearGradient id="l" x1="527.14" x2="386.47" y1="214.51" y2="338.08" gradientTransform="translate(11.241 229.76)" gradientUnits="userSpaceOnUse">
   <stop stop-color="#fff" offset="0"/>
   <stop stop-color="#fff" stop-opacity="0" offset="1"/>
  </linearGradient>
  <linearGradient id="m" x1="312.14" x2="450.27" y1="409.91" y2="341.19" gradientTransform="translate(11.241 229.76)" gradientUnits="userSpaceOnUse">
   <stop offset="0"/>
   <stop stop-opacity="0" offset="1"/>
  </linearGradient>
 </defs>
 <g transform="translate(0,236)">
  <g transform="matrix(1.6938 0 0 1.6938 -901.28 -1011.8)">
   <g transform="translate(34.345 -3.0305)">
    <g stroke-width="5.55">
     <g transform="matrix(.50537 -.29198 .29178 .50573 149.32 389.01)">
      <rect transform="rotate(-.82663)" x="456.32" y="481.24" width="87.799" height="137.55" rx="10.686" ry="11.232" fill="#fff"/>
      <path d="m480.67 543.88c11.612 10.199 20.522 22.58 28.053 35.898 5.3966-11.605 17.733-25.765 28.085-35.898-12.524-9.4163-20.879-22.206-28.053-35.802-4.87 11.823-17.006 26.224-28.085 35.802z" fill="#800000" stroke="#800000" stroke-linejoin="round" stroke-width="2.796"/>
      <path d="m541.68 473.47-69.156 1c-5.1636 0.0745-9.2346 4.5061-9.1562 9.9375 43.908 12.505 78.197 75.89 89.125 120.44l-1.3438-121.69c-0.0784-5.4314-4.3052-9.762-9.4688-9.6875z" fill="url(#j)"/>
      <path d="m475.24 611.52 69.156-1c5.1636-0.0745 9.2346-4.5061 9.1562-9.9375-43.908-12.505-78.197-71.89-89.125-116.44l1.3438 117.69c0.0784 5.4314 4.3052 9.762 9.4688 9.6875z" fill="url(#k)"/>
      <rect transform="rotate(-.82663)" x="456.32" y="481.24" width="87.799" height="137.55" rx="10.686" ry="11.232" fill="none" stroke="#000" stroke-linejoin="round" stroke-width="2.796"/>
     </g>
     <g transform="matrix(.56367 -.15114 .15104 .56406 249.34 269.06)">
      <rect transform="rotate(-.82663)" x="390.61" y="484.33" width="87.799" height="137.55" rx="10.686" ry="11.232" fill="#fff"/>
      <path d="m442.44 511.12c-8.1266 0-14.712 6.6084-14.712 14.735 0 4.0978 1.6796 7.7937 4.3843 10.464-1.3109-0.38293-2.7017-0.6102-4.1357-0.6102-8.1266 0-14.712 6.6084-14.712 14.735s6.5858 14.712 14.712 14.712c6.9017 0 12.693-4.7524 14.283-11.164-0.98038 11.203 0.44542 23.267-17.198 28.453h34.802c-17.513-5.1478-16.237-17.072-17.176-28.204 1.6762 6.2862 7.4026 10.916 14.215 10.916 8.1266 0 14.735-6.5858 14.735-14.712 0-8.1266-6.6084-14.735-14.735-14.735-1.4243 0-2.8102 0.20966-4.1131 0.58759 2.698-2.669 4.3843-6.349 4.3843-10.441 0-8.1266-6.6084-14.735-14.735-14.735h7e-5zm0 42.035c0.0541 0.28993 0.13245 0.57508 0.2034 0.85878l-0.1808 22.667-0.1808-22.848c0.0532-0.22487 0.11537-0.44927 0.15817-0.67798h1e-5z" stroke="#000" stroke-linejoin="round" stroke-width="2.796"/>
      <path d="m476.02 477.51-69.156 1c-5.1636 0.0745-9.2346 4.5061-9.1562 9.9375 43.908 12.505 78.197 75.89 89.125 120.44l-1.3438-121.69c-0.0784-5.4314-4.3052-9.762-9.4688-9.6875z" fill="url(#l)"/>
      <path d="m409.58 615.56 69.156-1c5.1636-0.0745 9.2346-4.5061 9.1562-9.9375-43.908-12.505-78.197-71.89-89.125-116.44l1.3438 117.69c0.0784 5.4314 4.3052 9.762 9.4688 9.6875z" fill="url(#m)"/>
      <rect transform="rotate(-.82663)" x="390.61" y="484.33" width="87.799" height="137.55" rx="10.686" ry="11.232" fill="none" stroke="#000" stroke-linejoin="round" stroke-width="2.796"/>
     </g>
     <g transform="matrix(.58355 0 0 .58396 354.23 328.8)">
      <rect transform="rotate(-.82663)" x="371.28" y="254.27" width="87.799" height="137.55" rx="10.686" ry="11.232" fill="#fff"/>
      <path d="m419.83 349.21c0.0645-0.0671 0.12106-0.14774 0.1853-0.21541v-0.48467c13.408-37.406 26.864-26.06 29.65-46.153 0-9.6827-6.7502-17.53-15.08-17.53-7.074 0-13.01 5.6624-14.64 13.302-3e-3 7e-3 -0.29291 7e-3 -0.30112 0-1.6299-7.6396-7.5655-13.302-14.64-13.302-8.3294 0-15.08 7.8469-15.08 17.53 2.7858 20.093 16.241 8.7473 29.65 46.153v0.48467c0.0642 0.0677 0.12092 0.1481 0.18532 0.21541 9e-3 -0.027 0.0146-0.0537 0.0232-0.0808 0.0102 0.0303 0.0356 0.0502 0.0462 0.0808h9e-5z" fill="#800000" stroke="#800000" stroke-linejoin="round" stroke-width="2.796"/>
      <path d="m453.37 247.75-69.156 1c-5.1636 0.0745-9.2346 4.5061-9.1562 9.9375 43.908 12.505 78.197 75.89 89.125 120.44l-1.3438-121.69c-0.0784-5.4314-4.3052-9.762-9.4688-9.6875z" fill="url(#n)"/>
      <path d="m386.93 385.8 69.156-1c5.1636-0.0745 9.2346-4.5061 9.1562-9.9375-43.908-12.505-78.197-71.89-89.125-116.44l1.3438 117.69c0.0784 5.4314 4.3052 9.762 9.4688 9.6875z" fill="url(#o)"/>
      <rect transform="rotate(-.82663)" x="371.28" y="254.27" width="87.799" height="137.55" rx="10.686" ry="11.232" fill="none" stroke="#000" stroke-linejoin="round" stroke-width="2.796"/>
     </g>
     <g transform="matrix(.56367 .15114 -.15104 .56406 369.22 162.19)">
      <rect transform="rotate(-.82663)" x="516.67" y="430.08" width="87.799" height="137.55" rx="10.686" ry="11.232" fill="#fff"/>
      <path d="m567.67 453.92c-0.0648 0.0583-0.1218 0.12792-0.18656 0.18655v0.41978c-13.499 32.395-27.045 22.569-29.85 39.97 0 8.3856 6.7957 15.181 15.181 15.181 7.1218 0 13.097-4.9039 14.738-11.52-1.0116 11.56 0.45963 24.008-17.746 29.36h35.797c-18.206-5.3516-16.735-17.8-17.746-29.36 1.6409 6.6162 7.6165 11.52 14.738 11.52 8.3856 0 15.181-6.7957 15.181-15.181-2.8046-17.401-16.351-7.5755-29.85-39.97v-0.41978c-0.0648-0.0586-0.12179-0.12835-0.18657-0.18655-9e-3 0.0233-0.0146 0.0467-0.0233 0.07-0.0102-0.0264-0.0357-0.0436-0.0465-0.07h-1.4e-4z" stroke="#000" stroke-linejoin="round" stroke-width="2.796"/>
      <path d="m601.28 421.45-69.156 1c-5.1636 0.0745-9.2346 4.5061-9.1562 9.9375 43.908 12.505 78.197 75.89 89.125 120.44l-1.3438-121.69c-0.0784-5.4314-4.3052-9.762-9.4688-9.6875z" fill="url(#p)"/>
      <path d="m534.84 559.5 69.156-1c5.1636-0.0745 9.2346-4.5061 9.1562-9.9375-43.908-12.505-78.197-71.89-89.125-116.44l1.3438 117.69c0.0784 5.4314 4.3052 9.762 9.4688 9.6875z" fill="url(#q)"/>
      <rect transform="rotate(-.82663)" x="516.67" y="430.08" width="87.799" height="137.55" rx="10.686" ry="11.232" fill="none" stroke="#000" stroke-linejoin="round" stroke-width="2.796"/>
     </g>
    </g>
    <g stroke="#000" stroke-linecap="round" stroke-width="1.632">
     <g fill="#fff" fill-rule="evenodd">
      <path d="m571.35 626.73c-7.3337-3.7118-15.638-7.9899-18.826-16.088-0.86576-6.4825 4.0059-7.1287 8.3511-7.5017 0.85306-3.3368 2.204-6.164 2.0293-9.8447-0.65952-13.9 2.9596-30.551 5.822-33.18 7.6738-4.0625 10.914-8.3645 8.8346 3.9879 0.50496-12.291 6.6735-32.36 14.39-36.205 7.716-3.8445 9.9035 4.4357 8.3843 9.2224 1.8049-4.8927 7.3697-14.064 14.123-9.4432 6.7535 4.621 1.776 13.508-1.0557 17.69 6.1527-7.6235 11.93-5.4195 14.153-0.34905 2.2513 5.1358-2.6056 11.988-5.2343 17.036 6.46-1.5783 6.8208 7.9278 4.739 11.951-6.099 11.786-14.752 22.109-24.532 30.917-3.0439 4.0946-5.4259 8.6478-8.2501 12.9 3.8648 2.6312 7.4482 8.6111 2.9108 12.444-4.4907 4.2255-11.241 2.2763-16.3 0.39545-3.2298-1.1869-6.3498-2.6435-9.538-3.9328z" stroke-linejoin="round"/>
      <path d="m623.15 560.4c-4.4137 8.3442-7.8045 12.697-14.51 20.497"/>
      <path d="m601.12 535.38c-5.7641 12.024-10.505 26.222-12.028 32.019"/>
     </g>
     <path d="m614.06 544.67c-0.51955-0.63996-10.026 15.23-15.882 28.936" fill="none"/>
    </g>
    <g fill-rule="evenodd">
     <path transform="translate(-.88388 -.53033)" d="m565.12 607.03c-0.1688 0.38494-0.22132 0.892-0.0312 1.7188 3e-3 0.0135-3e-3 0.0176 0 0.0312 2.1631 4.1215 7.0107 6.7044 11.375 8.9688 0.0123 6e-3 0.019 0.0249 0.0312 0.0312 1.9025 0.82649 3.793 1.7057 5.6875 2.4688 1.4976 0.60852 3.2079 1.2342 4.8125 1.4688 1.6046 0.23456 3.034 0.1021 4.0938-0.78125a0.46666 0.46666 0 0 1 0.0312 -0.0312c0.25048-0.18356 0.42245-0.39992 0.5625-0.625 0.23765-0.38201 0.2639-0.83451 0.1875-1.3125a0.46666 0.46666 0 0 1 -0.0625 0.0625c-7e-3 6e-3 -0.0242-6e-3 -0.0312 0-1.2589 1.0358-2.8882 1.2075-4.5625 0.96875-1.6904-0.241-3.4589-0.88649-4.9688-1.5-1.9131-0.7705-3.7614-1.6455-5.6562-2.4688a0.46666 0.46666 0 0 1 -0.03125 -0.0312c0.01 5e-3 -0.0277-0.0132-0.0625-0.0312-4.2772-2.219-9.0353-4.7514-11.375-8.9375z"/>
     <path transform="matrix(.33728 -.58406 -.57926 -.33436 866.56 869.11)" d="m167.31 550.75c-2.7148 0.45355-12.332 1.4168-20.375 2.4375-4.0213 0.51034-7.6622 1.0398-9.875 1.5312-0.5532 0.12286-1.0097 0.2233-1.375 0.34375-0.36534 0.12045-0.62758 0.24296-0.8125 0.40625-0.0925 0.0816-0.19324 0.18282-0.1875 0.34375 6e-3 0.16093 0.11427 0.29999 0.21875 0.375 0.20896 0.15001 0.49019 0.22084 0.9375 0.3125a0.26034 0.26034 0 0 0 0.0937 0c4.9784-0.42712 9.9674-0.81243 14.938-1.3438 0.7614-0.0633 6.4177-0.65933 11.156-1.4375 2.3693-0.38908 4.5034-0.80682 5.6875-1.25 0.29603-0.11079 0.53674-0.21619 0.71875-0.34375s0.33034-0.31766 0.3125-0.5625c-0.0178-0.24484-0.18414-0.38409-0.40625-0.5s-0.53356-0.21718-0.9375-0.3125a0.26034 0.26034 0 0 0 -0.0937 0z"/>
     <path transform="matrix(.33728 -.58406 -.57926 -.33436 866.56 869.11)" d="m164.28 565.47c-3.8802 0.021-9.4824 0.40143-14.844 0.71875-3.5743 0.21155-7.0563 0.39617-9.7812 0.46875-1.3625 0.0363-2.5222 0.0381-3.4375 0-0.91535-0.0381-1.5852-0.12521-1.8125-0.21875a0.38407 0.38407 0 0 0 -0.15625 -0.0312c-1.7632 6e-3 -3.1714 0.17509-4.1562 0.4375-0.49243 0.1312-0.86171 0.29288-1.1562 0.46875-0.29454 0.17587-0.57731 0.38642-0.59375 0.75-8e-3 0.18179 0.0767 0.34754 0.1875 0.46875 0.11078 0.12121 0.25 0.21096 0.40625 0.28125 0.3125 0.14058 0.73602 0.22315 1.2812 0.28125 1.0846 0.11558 2.6796 0.0831 4.9062-0.1875 0.0104 2.1e-4 0.0209-2.1e-4 0.0312 0 10.501 0.21353 21.114-0.65684 31.562-0.59375a0.38407 0.38407 0 0 0 0.125 0c0.79732-0.29799 1.3932-0.57073 1.8125-0.8125 0.41929-0.24177 0.73042-0.44302 0.8125-0.84375 0.041-0.20037-0.0595-0.43209-0.1875-0.5625-0.12796-0.13041-0.26858-0.18739-0.4375-0.25-0.33783-0.12522-0.78566-0.19562-1.3438-0.25-0.83649-0.0815-1.9253-0.13199-3.2188-0.125z"/>
     <path transform="matrix(.33728 -.58406 -.57926 -.33436 866.56 869.11)" d="m135.16 578.81c-0.51581 7e-3 -0.84681-0.01-1.125 0.0625-0.0695 0.0181-0.12678 0.0393-0.21875 0.0937-0.092 0.0545-0.23953 0.17312-0.28125 0.40625-0.0417 0.23313 0.0773 0.44758 0.15625 0.53125 0.0789 0.0837 0.12609 0.12239 0.1875 0.15625 0.24565 0.13543 0.53018 0.2101 0.9375 0.3125 1.6293 0.40961 5.0992 0.96556 9.25 1.5312 4.1508 0.56569 8.9483 1.13 13.188 1.5 4.2392 0.36997 7.8826 0.54835 9.8125 0.34375a0.53393 0.53393 0 0 0 0.0625 0c1.2184-0.28628 1.9875-0.53707 2.4688-0.78125 0.24062-0.12209 0.45941-0.1954 0.5625-0.59375 0.0515-0.19918-0.0185-0.46184-0.125-0.59375-0.10649-0.13191-0.20624-0.16693-0.3125-0.21875-0.42503-0.20726-0.96645-0.29648-1.7188-0.375-0.7523-0.0785-1.6798-0.11138-2.7188-0.15625-2.078-0.0897-4.5821-0.14657-6.8125-0.21875-2.2304-0.0722-4.2232-0.19085-5.1562-0.375a0.53393 0.53393 0 0 0 -0.0625 0c-5.3647-0.42905-10.683-0.99206-15.969-1.5938a0.53393 0.53393 0 0 0 -0.0312 0c-0.88122-0.0361-1.5779-0.0378-2.0938-0.0312z"/>
     <path d="m627.18 551.92c0.63326-0.76962 0.55214-1.013 0 0zm-57.221 7.5293c-0.41015 0.23103-0.78735 0.4494-1.2267 0.68201-2.8624 2.6282-6.4934 19.272-5.8339 33.173 8.9e-4 0.0188-8.1e-4 0.0358 0 0.0546 2.313 4.8791 3.5203-8.6381 3.751-11.085-0.38333-8.0793 1.7908-16.18 3.3097-22.825zm-11.15 43.921c-3.666 0.50399-6.9988 1.8269-6.2701 7.2838 3.1878 8.0978 11.476 12.384 18.81 16.095 3.1882 1.2893 6.3116 2.7415 9.5414 3.9283 5.0598 1.8809 11.812 3.8163 16.302-0.4092 2.7201-2.2978 2.5183-5.3634 1.0904-8.0204-8.9253 13.476-40.639-2.9731-39.474-18.878z" fill="url(#r)"/>
    </g>
   </g>
  </g>
 </g>
</svg>
